<?xml version="1.0" encoding="UTF-8" standalone="no"?>
<!-- Created with Inkscape (http://www.inkscape.org/) -->
<svg
   xmlns:dc="http://purl.org/dc/elements/1.1/"
   xmlns:cc="http://creativecommons.org/ns#"
   xmlns:rdf="http://www.w3.org/1999/02/22-rdf-syntax-ns#"
   xmlns:svg="http://www.w3.org/2000/svg"
   xmlns="http://www.w3.org/2000/svg"
   xmlns:sodipodi="http://sodipodi.sourceforge.net/DTD/sodipodi-0.dtd"
   xmlns:inkscape="http://www.inkscape.org/namespaces/inkscape"
   width="1052.3622"
   height="744.09448"
   id="svg2"
   sodipodi:version="0.32"
   inkscape:version="0.46"
   version="1.0"
   sodipodi:docname="foaf-large.svg"
   inkscape:output_extension="org.inkscape.output.svg.inkscape">
  <defs
     id="defs4">
    <inkscape:perspective
       sodipodi:type="inkscape:persp3d"
       inkscape:vp_x="0 : 526.18109 : 1"
       inkscape:vp_y="0 : 1000 : 0"
       inkscape:vp_z="744.09448 : 526.18109 : 1"
       inkscape:persp3d-origin="372.04724 : 350.78739 : 1"
       id="perspective10" />
    <inkscape:perspective
       id="perspective2390"
       inkscape:persp3d-origin="372.04724 : 350.78739 : 1"
       inkscape:vp_z="744.09448 : 526.18109 : 1"
       inkscape:vp_y="0 : 1000 : 0"
       inkscape:vp_x="0 : 526.18109 : 1"
       sodipodi:type="inkscape:persp3d" />
  </defs>
  <sodipodi:namedview
     id="base"
     pagecolor="#ffffff"
     bordercolor="#666666"
     borderopacity="1.0"
     gridtolerance="10000"
     guidetolerance="10"
     objecttolerance="10"
     inkscape:pageopacity="0.0"
     inkscape:pageshadow="2"
     inkscape:zoom="0.98994949"
     inkscape:cx="382.54768"
     inkscape:cy="365.46663"
     inkscape:document-units="px"
     inkscape:current-layer="layer1"
     showgrid="false"
     showguides="true"
     inkscape:guide-bbox="true"
     inkscape:window-width="1798"
     inkscape:window-height="959"
     inkscape:window-x="1"
     inkscape:window-y="83">
    <sodipodi:guide
       orientation="0,1"
       position="458.60926,637.40626"
       id="guide3220" />
  </sodipodi:namedview>
  <metadata
     id="metadata7">
    <rdf:RDF>
      <cc:Work
         rdf:about="">
        <dc:format>image/svg+xml</dc:format>
        <dc:type
           rdf:resource="http://purl.org/dc/dcmitype/StillImage" />
      </cc:Work>
    </rdf:RDF>
  </metadata>
  <g
     inkscape:label="Layer 1"
     inkscape:groupmode="layer"
     id="layer1"
     style="opacity:1;display:inline" />
  <g
     inkscape:groupmode="layer"
     id="layer2"
     inkscape:label="image"
     style="display:inline">
    <path
       sodipodi:type="arc"
       style="fill:#000000;fill-rule:evenodd;stroke:#000000;stroke-width:1px;stroke-linecap:butt;stroke-linejoin:miter;stroke-opacity:1;display:inline"
       id="path3230"
       sodipodi:cx="543.4621"
       sodipodi:cy="296.09183"
       sodipodi:rx="193.44421"
       sodipodi:ry="193.44421"
       d="M 736.90631,296.09183 A 193.44421,193.44421 0 1 1 350.01788,296.09183 A 193.44421,193.44421 0 1 1 736.90631,296.09183 z"
       transform="translate(-150.51275,161.11933)" />
    <path
       sodipodi:type="arc"
       style="fill:#fc6866;fill-opacity:1;fill-rule:evenodd;stroke:#000000;stroke-width:1px;stroke-linecap:butt;stroke-linejoin:miter;stroke-opacity:1;display:inline"
       id="path3232"
       sodipodi:cx="344.9671"
       sodipodi:cy="404.17816"
       sodipodi:rx="159.09903"
       sodipodi:ry="159.09903"
       d="M 504.06613,404.17816 A 159.09903,159.09903 0 1 1 185.86807,404.17816 A 159.09903,159.09903 0 1 1 504.06613,404.17816 z"
       transform="translate(47.982236,53.032994)" />
    <path
       sodipodi:type="arc"
       style="fill:#000000;fill-opacity:1;fill-rule:evenodd;stroke:#000000;stroke-width:1px;stroke-linecap:butt;stroke-linejoin:miter;stroke-opacity:1;display:inline"
       id="path3234"
       sodipodi:cx="671.24634"
       sodipodi:cy="287.00046"
       sodipodi:rx="38.890873"
       sodipodi:ry="38.890873"
       d="M 710.13721,287.00046 A 38.890873,38.890873 0 1 1 632.35546,287.00046 A 38.890873,38.890873 0 1 1 710.13721,287.00046 z"
       transform="translate(-219.20313,151.27035)" />
    <path
       sodipodi:type="arc"
       style="fill:#000000;fill-opacity:1;fill-rule:evenodd;stroke:#000000;stroke-width:1px;stroke-linecap:butt;stroke-linejoin:miter;stroke-opacity:1;display:inline"
       id="path3236"
       sodipodi:cx="671.24634"
       sodipodi:cy="287.00046"
       sodipodi:rx="38.890873"
       sodipodi:ry="38.890873"
       d="M 710.13721,287.00046 A 38.890873,38.890873 0 1 1 632.35546,287.00046 A 38.890873,38.890873 0 1 1 710.13721,287.00046 z"
       transform="translate(-337.89602,151.27035)" />
    <path
       sodipodi:type="arc"
       style="fill:#000000;fill-rule:evenodd;stroke:#000000;stroke-width:1px;stroke-linecap:butt;stroke-linejoin:miter;stroke-opacity:1;display:inline"
       id="path3222"
       sodipodi:cx="543.4621"
       sodipodi:cy="296.09183"
       sodipodi:rx="193.44421"
       sodipodi:ry="193.44421"
       d="M 736.90631,296.09183 A 193.44421,193.44421 0 1 1 350.01788,296.09183 A 193.44421,193.44421 0 1 1 736.90631,296.09183 z"
       transform="translate(291.93406,80.307129)" />
    <path
       sodipodi:type="arc"
       style="fill:#fcfe9b;fill-opacity:1;fill-rule:evenodd;stroke:#000000;stroke-width:1px;stroke-linecap:butt;stroke-linejoin:miter;stroke-opacity:1;display:inline"
       id="path3224"
       sodipodi:cx="344.9671"
       sodipodi:cy="404.17816"
       sodipodi:rx="159.09903"
       sodipodi:ry="159.09903"
       d="M 504.06613,404.17816 A 159.09903,159.09903 0 1 1 185.86807,404.17816 A 159.09903,159.09903 0 1 1 504.06613,404.17816 z"
       transform="translate(490.42905,-27.779211)" />
    <path
       sodipodi:type="arc"
       style="fill:#000000;fill-opacity:1;fill-rule:evenodd;stroke:#000000;stroke-width:1px;stroke-linecap:butt;stroke-linejoin:miter;stroke-opacity:1;display:inline"
       id="path3226"
       sodipodi:cx="671.24634"
       sodipodi:cy="287.00046"
       sodipodi:rx="38.890873"
       sodipodi:ry="38.890873"
       d="M 710.13721,287.00046 A 38.890873,38.890873 0 1 1 632.35546,287.00046 A 38.890873,38.890873 0 1 1 710.13721,287.00046 z"
       transform="translate(223.24368,70.458149)" />
    <path
       sodipodi:type="arc"
       style="fill:#000000;fill-opacity:1;fill-rule:evenodd;stroke:#000000;stroke-width:1px;stroke-linecap:butt;stroke-linejoin:miter;stroke-opacity:1;display:inline"
       id="path3228"
       sodipodi:cx="671.24634"
       sodipodi:cy="287.00046"
       sodipodi:rx="38.890873"
       sodipodi:ry="38.890873"
       d="M 710.13721,287.00046 A 38.890873,38.890873 0 1 1 632.35546,287.00046 A 38.890873,38.890873 0 1 1 710.13721,287.00046 z"
       transform="translate(104.55079,70.458149)" />
    <path
       sodipodi:type="arc"
       style="fill:#000000;fill-rule:evenodd;stroke:#000000;stroke-width:1px;stroke-linecap:butt;stroke-linejoin:miter;stroke-opacity:1"
       id="path2422"
       sodipodi:cx="543.4621"
       sodipodi:cy="296.09183"
       sodipodi:rx="193.44421"
       sodipodi:ry="193.44421"
       d="M 736.90631,296.09183 A 193.44421,193.44421 0 1 1 350.01788,296.09183 A 193.44421,193.44421 0 1 1 736.90631,296.09183 z"
       transform="translate(61.619309,5.0507589)" />
    <path
       sodipodi:type="arc"
       style="fill:#9ecd9a;fill-opacity:1;fill-rule:evenodd;stroke:#000000;stroke-width:1px;stroke-linecap:butt;stroke-linejoin:miter;stroke-opacity:1"
       id="path3200"
       sodipodi:cx="344.9671"
       sodipodi:cy="404.17816"
       sodipodi:rx="159.09903"
       sodipodi:ry="159.09903"
       d="M 504.06613,404.17816 A 159.09903,159.09903 0 1 1 185.86807,404.17816 A 159.09903,159.09903 0 1 1 504.06613,404.17816 z"
       transform="translate(260.1143,-103.03558)" />
    <path
       sodipodi:type="arc"
       style="fill:#000000;fill-opacity:1;fill-rule:evenodd;stroke:#000000;stroke-width:1px;stroke-linecap:butt;stroke-linejoin:miter;stroke-opacity:1"
       id="path3208"
       sodipodi:cx="671.24634"
       sodipodi:cy="287.00046"
       sodipodi:rx="38.890873"
       sodipodi:ry="38.890873"
       d="M 710.13721,287.00046 A 38.890873,38.890873 0 1 1 632.35546,287.00046 A 38.890873,38.890873 0 1 1 710.13721,287.00046 z"
       transform="translate(-7.0710678,-4.7982255)" />
    <path
       sodipodi:type="arc"
       style="fill:#000000;fill-opacity:1;fill-rule:evenodd;stroke:#000000;stroke-width:1px;stroke-linecap:butt;stroke-linejoin:miter;stroke-opacity:1;display:inline"
       id="path3210"
       sodipodi:cx="671.24634"
       sodipodi:cy="287.00046"
       sodipodi:rx="38.890873"
       sodipodi:ry="38.890873"
       d="M 710.13721,287.00046 A 38.890873,38.890873 0 1 1 632.35546,287.00046 A 38.890873,38.890873 0 1 1 710.13721,287.00046 z"
       transform="translate(-125.76396,-4.7982255)" />
    <path
       sodipodi:type="arc"
       style="fill:#000000;fill-rule:evenodd;stroke:#000000;stroke-width:1px;stroke-linecap:butt;stroke-linejoin:miter;stroke-opacity:1;display:inline"
       id="path3212"
       sodipodi:cx="543.4621"
       sodipodi:cy="296.09183"
       sodipodi:rx="193.44421"
       sodipodi:ry="193.44421"
       d="M 736.90631,296.09183 A 193.44421,193.44421 0 1 1 350.01788,296.09183 A 193.44421,193.44421 0 1 1 736.90631,296.09183 z"
       transform="translate(-333.35037,5.4543129)" />
    <path
       sodipodi:type="arc"
       style="fill:#9999cb;fill-opacity:1;fill-rule:evenodd;stroke:#000000;stroke-width:1px;stroke-linecap:butt;stroke-linejoin:miter;stroke-opacity:1;display:inline"
       id="path3214"
       sodipodi:cx="344.9671"
       sodipodi:cy="404.17816"
       sodipodi:rx="159.09903"
       sodipodi:ry="159.09903"
       d="M 504.06613,404.17816 A 159.09903,159.09903 0 1 1 185.86807,404.17816 A 159.09903,159.09903 0 1 1 504.06613,404.17816 z"
       transform="translate(-134.85538,-102.63203)" />
    <path
       sodipodi:type="arc"
       style="fill:#000000;fill-opacity:1;fill-rule:evenodd;stroke:#000000;stroke-width:1px;stroke-linecap:butt;stroke-linejoin:miter;stroke-opacity:1;display:inline"
       id="path3216"
       sodipodi:cx="671.24634"
       sodipodi:cy="287.00046"
       sodipodi:rx="38.890873"
       sodipodi:ry="38.890873"
       d="M 710.13721,287.00046 A 38.890873,38.890873 0 1 1 632.35546,287.00046 A 38.890873,38.890873 0 1 1 710.13721,287.00046 z"
       transform="translate(-402.04075,-4.394667)" />
    <path
       sodipodi:type="arc"
       style="fill:#000000;fill-opacity:1;fill-rule:evenodd;stroke:#000000;stroke-width:1px;stroke-linecap:butt;stroke-linejoin:miter;stroke-opacity:1;display:inline"
       id="path3218"
       sodipodi:cx="671.24634"
       sodipodi:cy="287.00046"
       sodipodi:rx="38.890873"
       sodipodi:ry="38.890873"
       d="M 710.13721,287.00046 A 38.890873,38.890873 0 1 1 632.35546,287.00046 A 38.890873,38.890873 0 1 1 710.13721,287.00046 z"
       transform="translate(-520.73364,-4.394667)" />
  </g>
</svg>
